<svg id="Camada_1" data-name="Camada 1" xmlns="http://www.w3.org/2000/svg" viewBox="0 0 21.5 12.9489"><path d="M20,17.21H4a2.7508,2.7508,0,0,1-2.75-2.75v-3a.75.75,0,0,1,.4722-.6968,27.6433,27.6433,0,0,1,20.5551,0,.75.75,0,0,1,.4727.6968v3A2.7508,2.7508,0,0,1,20,17.21ZM2.75,11.9736V14.46A1.25,1.25,0,0,0,4,15.71H20a1.25,1.25,0,0,0,1.25-1.25V11.9736A26.1326,26.1326,0,0,0,2.75,11.9736Z" transform="translate(-1.25 -5.7816)"/><path d="M22,14.21a.75.75,0,0,1-.75-.75V8.9736a26.1326,26.1326,0,0,0-18.5,0V13.46a.75.75,0,0,1-1.5,0v-5a.75.75,0,0,1,.4722-.6968,27.6433,27.6433,0,0,1,20.5551,0A.75.75,0,0,1,22.75,8.46v5A.75.75,0,0,1,22,14.21Z" transform="translate(-1.25 -5.7816)"/><path d="M5,18.7305a.75.75,0,0,1-.75-.75V16.46a.75.75,0,0,1,1.5,0v1.52A.75.75,0,0,1,5,18.7305Z" transform="translate(-1.25 -5.7816)"/><path d="M19,18.7305a.75.75,0,0,1-.75-.75V16.46a.75.75,0,0,1,1.5,0v1.52A.75.75,0,0,1,19,18.7305Z" transform="translate(-1.25 -5.7816)"/></svg>