<svg id="Camada_1" data-name="Camada 1" xmlns="http://www.w3.org/2000/svg" viewBox="0 0 19.5 21.3745"><path d="M19,20.69H5a2.7507,2.7507,0,0,1-2.75-2.75v-3a.75.75,0,0,1,.4458-.6855,23.0547,23.0547,0,0,1,18.6079,0,.7492.7492,0,0,1,.4463.6855v3A2.7507,2.7507,0,0,1,19,20.69ZM3.75,15.4346V17.94A1.25,1.25,0,0,0,5,19.19H19a1.25,1.25,0,0,0,1.25-1.25V15.4346A21.545,21.545,0,0,0,3.75,15.4346Z" transform="translate(-2.25 -1.3149)"/><path d="M3,15.69a.75.75,0,0,1-.75-.75V12.52A3.7242,3.7242,0,0,1,3.3486,9.8682a3.84,3.84,0,0,1,5.3033.0005A3.7238,3.7238,0,0,1,9.75,12.52v.72a.75.75,0,1,1-1.5,0v-.72a2.2312,2.2312,0,0,0-.6592-1.59A2.3008,2.3008,0,0,0,4.41,10.9292,2.2316,2.2316,0,0,0,3.75,12.52v2.42A.75.75,0,0,1,3,15.69Z" transform="translate(-2.25 -1.3149)"/><path d="M21,15.69a.75.75,0,0,1-.75-.75V12.52a2.2656,2.2656,0,0,0-.6592-1.5908,2.3024,2.3024,0,0,0-3.1816,0A2.2656,2.2656,0,0,0,15.75,12.52v.72a.75.75,0,1,1-1.5,0v-.72a3.7267,3.7267,0,0,1,1.0986-2.6513,3.8388,3.8388,0,0,1,5.3028,0A3.7267,3.7267,0,0,1,21.75,12.52v2.42A.75.75,0,0,1,21,15.69Z" transform="translate(-2.25 -1.3149)"/><path d="M5,10.44a.75.75,0,0,1-.75-.75V3.94a.75.75,0,0,1,.375-.6494,14.7849,14.7849,0,0,1,7.2783-1.9756,15.2829,15.2829,0,0,1,7.3028,1.8809l.1611.09A.7507.7507,0,0,1,19.75,3.94V9.66a.75.75,0,0,1-1.5,0V4.3823a13.2463,13.2463,0,0,0-12.5-.001V9.69A.75.75,0,0,1,5,10.44Z" transform="translate(-2.25 -1.3149)"/><path d="M6,22.69a.75.75,0,0,1-.75-.75v-2a.75.75,0,0,1,1.5,0v2A.75.75,0,0,1,6,22.69Z" transform="translate(-2.25 -1.3149)"/><path d="M18,22.69a.75.75,0,0,1-.75-.75v-2a.75.75,0,1,1,1.5,0v2A.75.75,0,0,1,18,22.69Z" transform="translate(-2.25 -1.3149)"/></svg>