<svg id="Camada_1" data-name="Camada 1" xmlns="http://www.w3.org/2000/svg" viewBox="0 0 21.5 10.5011"><path d="M22,8.25H2a.75.75,0,0,1,0-1.5H22a.75.75,0,0,1,0,1.5Z" transform="translate(-1.25 -6.7489)"/><path d="M9,17.25a.7493.7493,0,0,1-.7314-.5869l-2-9a.75.75,0,0,1,1.4638-.3252l2,9a.7506.7506,0,0,1-.5693.8955A.78.78,0,0,1,9,17.25Z" transform="translate(-1.25 -6.7489)"/><path d="M3.0005,17.25a.78.78,0,0,1-.1631-.0176.7506.7506,0,0,1-.5693-.8955l2-9a.75.75,0,0,1,1.4638.3252l-2,9A.7493.7493,0,0,1,3.0005,17.25Z" transform="translate(-1.25 -6.7489)"/><path d="M8.11,13.25H3.89a.75.75,0,0,1,0-1.5H8.11a.75.75,0,0,1,0,1.5Z" transform="translate(-1.25 -6.7489)"/><path d="M20.999,17.25a.75.75,0,0,1-.7314-.5869l-2-9a.75.75,0,0,1,1.4648-.3252l2,9a.7506.7506,0,0,1-.5693.8955A.79.79,0,0,1,20.999,17.25Z" transform="translate(-1.25 -6.7489)"/><path d="M15.001,17.25a.797.797,0,0,1-.1641-.0176.7506.7506,0,0,1-.5693-.8955l2-9a.75.75,0,0,1,1.4648.3252l-2,9A.75.75,0,0,1,15.001,17.25Z" transform="translate(-1.25 -6.7489)"/><path d="M20.11,13.25H15.89a.75.75,0,0,1,0-1.5H20.11a.75.75,0,0,1,0,1.5Z" transform="translate(-1.25 -6.7489)"/></svg>