<svg width="24" height="24" viewBox="0 0 24 24" fill="none" xmlns="http://www.w3.org/2000/svg">
<path d="M9 22.14H15" stroke="black" stroke-width="1.5" stroke-linecap="round" stroke-linejoin="round"/>
<path d="M12 18.14V22.14" stroke="black" stroke-width="1.5" stroke-linecap="round" stroke-linejoin="round"/>
<path d="M17.66 18.14H6.33999C6.0491 18.1436 5.76094 18.0836 5.49562 17.9643C5.23029 17.845 4.99419 17.6692 4.80377 17.4493C4.61335 17.2294 4.4732 16.9705 4.3931 16.6909C4.313 16.4112 4.29488 16.1174 4.33999 15.83L5.99999 5.56004C6.02031 5.28549 6.11733 5.02216 6.27999 4.80004V4.80004C6.92376 3.90852 7.76636 3.1792 8.74098 2.66992C9.71561 2.16064 10.7955 1.88538 11.895 1.86597C12.9945 1.84656 14.0834 2.08354 15.0753 2.5581C16.0673 3.03267 16.9352 3.73179 17.61 4.60004L17.75 4.78004C17.9324 5.01272 18.0405 5.29501 18.06 5.59004L19.67 15.83C19.7153 16.1183 19.6969 16.4129 19.6162 16.6933C19.5356 16.9737 19.3945 17.2331 19.203 17.4532C19.0115 17.6733 18.7741 17.8488 18.5076 17.9675C18.241 18.0861 17.9517 18.145 17.66 18.14Z" stroke="black" stroke-width="1.5" stroke-linecap="round" stroke-linejoin="round"/>
</svg>
