<svg id="Camada_1" data-name="Camada 1" xmlns="http://www.w3.org/2000/svg" viewBox="0 0 16.8777 21.7737"><path d="M15,22.89H9a.75.75,0,0,1,0-1.5h6a.75.75,0,0,1,0,1.5Z" transform="translate(-3.5662 -1.1159)"/><path d="M12,22.89a.75.75,0,0,1-.75-.75v-4a.75.75,0,0,1,1.5,0v4A.75.75,0,0,1,12,22.89Z" transform="translate(-3.5662 -1.1159)"/><path d="M17.6953,18.89H6.34a2.6461,2.6461,0,0,1-1.1538-.2421,2.7519,2.7519,0,0,1-1.5874-2.9336L5.26,5.44a2.1393,2.1393,0,0,1,.415-1.0835,7.8327,7.8327,0,0,1,6.207-3.2407,7.9664,7.9664,0,0,1,3.5166.7651A7.8718,7.8718,0,0,1,18.2021,4.14l.1407.1812a2.2012,2.2012,0,0,1,.4648,1.22l1.6035,10.1734a2.7517,2.7517,0,0,1-1.5976,2.9384A2.7317,2.7317,0,0,1,17.6953,18.89Zm-.0351-1.5a.1941.1941,0,0,0,.0341,0,1.2565,1.2565,0,0,0,.51-.1074,1.2509,1.2509,0,0,0,.7246-1.3369l-1.61-10.2388a.8041.8041,0,0,0-.1582-.4628L17.0176,5.06A6.3616,6.3616,0,0,0,14.752,3.2349a6.2467,6.2467,0,0,0-2.8438-.6187A6.3284,6.3284,0,0,0,6.8877,5.2393a.7244.7244,0,0,0-.14.3764L5.08,15.95a1.2476,1.2476,0,0,0,.0342.5332,1.2441,1.2441,0,0,0,.6889.7959,1.4284,1.4284,0,0,0,.5264.11Z" transform="translate(-3.5662 -1.1159)"/></svg>