<svg id="Camada_1" data-name="Camada 1" xmlns="http://www.w3.org/2000/svg" viewBox="0 0 21.5 19.5"><path d="M21.8,17.75H2.2a.9493.9493,0,0,1-.95-.95A8.5506,8.5506,0,0,1,9.8,8.25h4.4a8.55,8.55,0,0,1,8.55,8.55.95.95,0,0,1-.95.95ZM2.771,16.25H21.23A7.0512,7.0512,0,0,0,14.2,9.75H9.8a7.051,7.051,0,0,0-7.0288,6.5Z" transform="translate(-1.25 -2.25)"/><path d="M12,9.75A.75.75,0,0,1,11.25,9V3a.75.75,0,0,1,1.5,0V9A.75.75,0,0,1,12,9.75Z" transform="translate(-1.25 -2.25)"/><path d="M11.87,21.75a3.63,3.63,0,0,1-3.62-3.6182V17a.75.75,0,0,1,1.5,0v1.13a2.12,2.12,0,0,0,4.24,0V17a.75.75,0,0,1,1.5,0v1.13a3.6208,3.6208,0,0,1-3.62,3.62Z" transform="translate(-1.25 -2.25)"/></svg>