<svg width="24" height="24" viewBox="0 0 24 24" fill="none" xmlns="http://www.w3.org/2000/svg">
<path fill-rule="evenodd" clip-rule="evenodd" d="M14.28 18.0001H9.71997C8.76511 17.9995 7.82164 17.7926 6.95411 17.3937C6.08659 16.9947 5.31547 16.4131 4.6935 15.6886C4.07154 14.9641 3.61342 14.1138 3.35047 13.1958C3.08751 12.2779 3.02594 11.314 3.16997 10.3701V10.3701C3.41769 8.74295 4.09507 7.2114 5.13221 5.93344C6.16935 4.65547 7.52868 3.67737 9.06996 3.10006V3.10006C10.9588 2.39031 13.0411 2.39031 14.93 3.10006V3.10006C16.4667 3.67717 17.8222 4.65286 18.8573 5.92696C19.8924 7.20106 20.5698 8.72766 20.82 10.3501V10.3501C20.967 11.2947 20.9081 12.2599 20.6472 13.1796C20.3863 14.0993 19.9296 14.9517 19.3083 15.6783C18.6871 16.4049 17.9161 16.9886 17.0482 17.3894C16.1803 17.7901 15.2359 17.9985 14.28 18.0001V18.0001Z" stroke="black" stroke-width="1.5" stroke-linecap="round" stroke-linejoin="round"/>
<path d="M15.87 17.8101L18 21.0001" stroke="black" stroke-width="1.5" stroke-linecap="round" stroke-linejoin="round"/>
<path d="M8.13 17.8101L6 21.0001" stroke="black" stroke-width="1.5" stroke-linecap="round" stroke-linejoin="round"/>
<path d="M7 12L8.34 12.89C9.42422 13.612 10.6974 13.9982 12 14C13.3026 13.9982 14.5758 13.612 15.66 12.89L17 12" stroke="black" stroke-width="1.5" stroke-linecap="round" stroke-linejoin="round"/>
</svg>
