<svg id="Camada_1" data-name="Camada 1" xmlns="http://www.w3.org/2000/svg" viewBox="0 0 19.3049 19.9325"><path d="M14.2822,18.75H9.72a7.336,7.336,0,0,1-3.0791-.6748,7.4315,7.4315,0,0,1-2.5161-1.8984,7.3218,7.3218,0,0,1-1.4951-2.7754,7.4189,7.4189,0,0,1-.2007-3.1446A9.9993,9.9993,0,0,1,8.8066,2.3979a9.075,9.075,0,0,1,6.3868,0,9.9991,9.9991,0,0,1,6.3681,7.8375,7.3418,7.3418,0,0,1-.1924,3.1484,7.434,7.434,0,0,1-1.49,2.7822A7.3308,7.3308,0,0,1,17.3623,18.07,7.4327,7.4327,0,0,1,14.2822,18.75ZM12,3.3174a7.5772,7.5772,0,0,0-2.6665.4848,8.5012,8.5012,0,0,0-5.4219,6.6807,5.9155,5.9155,0,0,0,.16,2.5054A5.8428,5.8428,0,0,0,5.2627,15.2a5.9128,5.9128,0,0,0,2.0044,1.5117,5.8383,5.8383,0,0,0,2.4536.5381h4.5576a5.9272,5.9272,0,0,0,2.4551-.541,5.8808,5.8808,0,0,0,3.3457-6.2442A8.498,8.498,0,0,0,14.666,3.8022,7.5724,7.5724,0,0,0,12,3.3174Z" transform="translate(-2.345 -1.8175)"/><path d="M18.001,21.75a.7513.7513,0,0,1-.625-.333l-2.13-3.19a.75.75,0,1,1,1.248-.8339l2.13,3.1894a.75.75,0,0,1-.623,1.167Z" transform="translate(-2.345 -1.8175)"/><path d="M6,21.75a.75.75,0,0,1-.623-1.167l2.13-3.1894a.75.75,0,1,1,1.2471.8339l-2.13,3.19A.75.75,0,0,1,6,21.75Z" transform="translate(-2.345 -1.8175)"/><path d="M12.001,14.75a7.3525,7.3525,0,0,1-4.0767-1.2354l-1.3393-.89a.75.75,0,1,1,.83-1.249l1.34.89a5.8406,5.8406,0,0,0,6.4892.0005l1.3409-.8906a.75.75,0,1,1,.83,1.249l-1.34.89A7.3435,7.3435,0,0,1,12.001,14.75Z" transform="translate(-2.345 -1.8175)"/></svg>