<svg id="Camada_1" data-name="Camada 1" xmlns="http://www.w3.org/2000/svg" viewBox="0 0 8 21.5"><path d="M12,22.75a.75.75,0,0,1-.75-.75V2a.75.75,0,0,1,1.5,0V22A.75.75,0,0,1,12,22.75Z" transform="translate(-8.25 -1.25)"/><path d="M12,15.75a.7476.7476,0,0,1-.53-.22l-3-3A.75.75,0,0,1,9.53,11.47l3,3A.75.75,0,0,1,12,15.75Z" transform="translate(-8.25 -1.25)"/><path d="M12,9.75a.75.75,0,0,1-.53-1.28l3.5-3.5A.75.75,0,0,1,16.03,6.03l-3.5,3.5A.7476.7476,0,0,1,12,9.75Z" transform="translate(-8.25 -1.25)"/></svg>