<svg id="Camada_1" data-name="Camada 1" xmlns="http://www.w3.org/2000/svg" viewBox="0 0 13.5002 21.5007"><path d="M18,22.75a.75.75,0,0,1-.75-.75V12A1.25,1.25,0,0,0,16,10.75H6a.75.75,0,0,1,0-1.5H16A2.7508,2.7508,0,0,1,18.75,12V22A.75.75,0,0,1,18,22.75Z" transform="translate(-5.2498 -1.2493)"/><path d="M7.0005,22.75a.7751.7751,0,0,1-.209-.0293.75.75,0,0,1-.5122-.9287l1.88-6.5a1.2343,1.2343,0,0,0-.0054-.6035L5.269,2.1685a.75.75,0,0,1,1.462-.337l2.88,12.5005a2.7265,2.7265,0,0,1-.0048,1.3565L7.7207,22.208A.75.75,0,0,1,7.0005,22.75Z" transform="translate(-5.2498 -1.2493)"/><path d="M18,15.75H9a.75.75,0,0,1,0-1.5h9a.75.75,0,0,1,0,1.5Z" transform="translate(-5.2498 -1.2493)"/></svg>