<svg id="Camada_1" data-name="Camada 1" xmlns="http://www.w3.org/2000/svg" viewBox="0 0 15.5 12.8933"><path d="M17,17.18H7a2.7508,2.7508,0,0,1-2.75-2.75v-6a.7494.7494,0,0,1,.3774-.6509,15.096,15.096,0,0,1,14.7447,0A.75.75,0,0,1,19.75,8.43v6A2.7508,2.7508,0,0,1,17,17.18ZM5.75,8.873V14.43a1.257,1.257,0,0,0,.3662.8838A1.24,1.24,0,0,0,7,15.68H17a1.24,1.24,0,0,0,.8828-.3652A1.26,1.26,0,0,0,18.25,14.43V8.8735A13.5624,13.5624,0,0,0,5.75,8.873Z" transform="translate(-4.25 -5.8567)"/><path d="M9,18.75A.75.75,0,0,1,8.25,18V16.43a.75.75,0,0,1,1.5,0V18A.75.75,0,0,1,9,18.75Z" transform="translate(-4.25 -5.8567)"/><path d="M15,18.75a.75.75,0,0,1-.75-.75V16.43a.75.75,0,0,1,1.5,0V18A.75.75,0,0,1,15,18.75Z" transform="translate(-4.25 -5.8567)"/><path d="M5.0005,12.18a.75.75,0,0,1-.3731-1.4009,15.096,15.096,0,0,1,14.7447,0,.75.75,0,1,1-.7442,1.3018,13.57,13.57,0,0,0-13.2553,0A.7469.7469,0,0,1,5.0005,12.18Z" transform="translate(-4.25 -5.8567)"/></svg>