<svg id="Camada_1" data-name="Camada 1" xmlns="http://www.w3.org/2000/svg" viewBox="0 0 15.5 21.5"><path d="M17,22.75H7A2.7528,2.7528,0,0,1,4.25,20V4A2.7528,2.7528,0,0,1,7,1.25H17A2.7528,2.7528,0,0,1,19.75,4V20A2.7528,2.7528,0,0,1,17,22.75ZM7,2.75A1.2511,1.2511,0,0,0,5.75,4V20A1.2511,1.2511,0,0,0,7,21.25H17A1.2511,1.2511,0,0,0,18.25,20V4A1.2511,1.2511,0,0,0,17,2.75Z" transform="translate(-4.25 -1.25)"/><path d="M12,22.75a.75.75,0,0,1-.75-.75V2a.75.75,0,0,1,1.5,0V22A.75.75,0,0,1,12,22.75Z" transform="translate(-4.25 -1.25)"/><path d="M9,14.75A.75.75,0,0,1,8.25,14V12a.75.75,0,0,1,1.5,0v2A.75.75,0,0,1,9,14.75Z" transform="translate(-4.25 -1.25)"/><path d="M15,14.75a.75.75,0,0,1-.75-.75V12a.75.75,0,0,1,1.5,0v2A.75.75,0,0,1,15,14.75Z" transform="translate(-4.25 -1.25)"/></svg>