<svg id="Grupo_12156" data-name="Grupo 12156" xmlns="http://www.w3.org/2000/svg" xmlns:xlink="http://www.w3.org/1999/xlink" width="24.759" height="24.761" viewBox="0 0 24.759 24.761">
  <defs>
    <linearGradient id="linear-gradient" x1="0.796" y1="0.817" x2="0.175" y2="0.209" gradientUnits="objectBoundingBox">
      <stop offset="0" stop-opacity="0"/>
      <stop offset="1" stop-opacity="0.251"/>
    </linearGradient>
  </defs>
  <path id="Caminho_21" data-name="Caminho 21" d="M613.953,194.043l-3.419-3.419a1.125,1.125,0,0,0-1.591,1.591l2.624,2.624-9.788,9.788-3.435-3.435a1.125,1.125,0,1,0-1.591,1.591l4.23,4.23a1.123,1.123,0,0,0,1.591,0l11.378-11.379A1.126,1.126,0,0,0,613.953,194.043Z" transform="translate(-589.523 -182.583)" fill="#522bcf"/>
  <path id="Caminho_22" data-name="Caminho 22" d="M523.6,94.051l-2.968-2.967a1.126,1.126,0,0,0-1.591,0l-11.378,11.379a1.124,1.124,0,0,0-.243,1.227,1.139,1.139,0,0,0,.3.417c.1.1.5.5,1.013,1.006.642.642,1.458,1.464,2.066,2.076l.011.011a1.121,1.121,0,0,0,1.589,0l0,0a1.124,1.124,0,0,0,0-1.587l-.016-.016c-.115-.115-.831-.838-1.552-1.559-.174-.177-.348-.352-.514-.517l-.269-.269,9.783-9.783,2.172,2.173a1.125,1.125,0,1,0,1.591-1.591Z" transform="translate(-507.337 -90.755)" fill="#522bcf"/>
  <path id="Caminho_23" data-name="Caminho 23" d="M763.619,198.578l-2.488-2.488-1.591,1.591,2.488,2.488Z" transform="translate(-739.999 -187.929)" fill="url(#linear-gradient)"/>
  <path id="Caminho_24" data-name="Caminho 24" d="M522.711,251.27l-1.591,1.591c.745.745,1.691,1.7,2.4,2.4l1.591-1.591c-.132-.132-.965-.971-1.8-1.806C523.105,251.664,522.9,251.461,522.711,251.27Z" transform="translate(-520.052 -238.833)" fill="url(#linear-gradient-2)"/>
  <path id="Caminho_25" data-name="Caminho 25" d="M566.6,163.054a.965.965,0,0,1,.047.088,1.073,1.073,0,0,1,.056.106,1.01,1.01,0,0,1,.036.116.93.93,0,0,1,.028.094,1.138,1.138,0,0,1,0,.441.932.932,0,0,1-.028.094c-.012.039-.02.078-.036.116a1.23,1.23,0,0,1-.057.109c-.016.028-.028.057-.046.084a1.165,1.165,0,0,1-.141.173l-2.745,2.745a1.125,1.125,0,1,1-1.591-1.591l.826-.826h-4.2l0,5.385a1.124,1.124,0,0,1-.329.795h0a1.124,1.124,0,0,1-.795.329h-8.207a1.124,1.124,0,1,1,0-2.248H556.5l0-5.384a1.124,1.124,0,0,1,.329-.795h0a1.124,1.124,0,0,1,.795-.329h5.328l-.768-.768a1.125,1.125,0,0,1,1.591-1.591l2.687,2.687A1.026,1.026,0,0,1,566.6,163.054Z" transform="translate(-545.117 -154.513)" fill="#f86018"/>
</svg>
