
<svg id="Grupo_26852" data-name="Grupo 26852" xmlns="http://www.w3.org/2000/svg" xmlns:xlink="http://www.w3.org/1999/xlink" width="334.403" height="59.136" viewBox="0 0 334.403 59.136">
  <defs>
    <clipPath id="clip-path">
      <path id="Caminho_21896" data-name="Caminho 21896" d="M93.06,91.845l.184.545c1.756,5.21,7.84,8.323,16.294,8.524h20.18a13.17,13.17,0,0,1,5.122-8.116,10.108,10.108,0,0,0-4.278-.954Z" transform="translate(-93.06 -91.845)" fill="#fff"/>
    </clipPath>
    <clipPath id="clip-path-2">
      <path id="Caminho_21897" data-name="Caminho 21897" d="M37.245,0s.026.064.076.181A20.5,20.5,0,0,0,56.184,12.608l25.27-.008a54.471,54.471,0,0,1,14.174,1.775,18.525,18.525,0,0,1,4.759,2.033C96.964,6.269,86.748,0,74.918,0Z" transform="translate(-37.245 0.001)" fill="#fff"/>
    </clipPath>
    <clipPath id="clip-path-3">
      <path id="Caminho_21898" data-name="Caminho 21898" d="M37.245,0s.026.064.076.181a20.374,20.374,0,0,0,2.5,4.306h37.2c9.962,0,18.779,4.447,23.359,11.905C96.952,6.262,86.742,0,74.918,0Z" transform="translate(-37.245 0.001)" fill="#f86018"/>
    </clipPath>
    <clipPath id="clip-path-4">
      <path id="Caminho_21899" data-name="Caminho 21899" d="M218.5,44.4a7.852,7.852,0,0,1-4.79-6.2l-.753-7.127h12.8a4.8,4.8,0,0,1,3.341,1.34c6.072,5.879,6.573,16.553,6.573,16.553-11.4-1.55-13.185-2.738-17.174-4.57m-9.625-18.27a2.809,2.809,0,0,0-2.793,3.109l2.356,21.848A13.133,13.133,0,0,1,223.3,64.126c0,.167-.006.333-.012.5h19.053c-.618-5.877-1.8-17.221-1.963-18.753a29.427,29.427,0,0,0-8.039-17.641,6.976,6.976,0,0,0-4.986-2.1Z" transform="translate(-206.066 -26.13)" fill="#f86018"/>
    </clipPath>
    <clipPath id="clip-path-5">
      <path id="Caminho_21900" data-name="Caminho 21900" d="M93.254,92.421c1.756,5.21,7.84,8.323,16.294,8.524h20.18a13.069,13.069,0,0,1,1.945-4.772H107.056c-5.977-.142-10.839-1.653-13.979-4.277Z" transform="translate(-93.077 -91.896)" fill="none"/>
    </clipPath>
    <clipPath id="clip-path-6">
      <path id="Caminho_21901" data-name="Caminho 21901" d="M0,39.207l.529,1.135c4.912,10.547,15.5,16.6,28.592,16.979l45.629,0a14.587,14.587,0,0,1,7.8,2.252c.2-.073.405-.143.612-.206L82.385,52.2a13.282,13.282,0,0,0-9.754-11.4,48.981,48.981,0,0,0-12.813-1.595Z" transform="translate(0 -39.207)" fill="#fff"/>
    </clipPath>
    <clipPath id="clip-path-7">
      <rect id="Retângulo_36691" data-name="Retângulo 36691" width="119.234" height="59.136" fill="none"/>
    </clipPath>
  </defs>
  <g id="Grupo_26843" data-name="Grupo 26843" transform="translate(0 0)">
    <g id="Grupo_26830" data-name="Grupo 26830" transform="translate(37.464 36.976)">
      <g id="Grupo_26829" data-name="Grupo 26829" clip-path="url(#clip-path)">
        <rect id="Retângulo_36685" data-name="Retângulo 36685" width="42.361" height="22.812" transform="translate(-2.915 1.061) rotate(-20)" fill="#fff"/>
      </g>
    </g>
    <g id="Grupo_26832" data-name="Grupo 26832" transform="translate(14.994 0)">
      <g id="Grupo_26831" data-name="Grupo 26831" clip-path="url(#clip-path-2)">
        <rect id="Retângulo_36686" data-name="Retângulo 36686" width="64.947" height="37.015" transform="matrix(0.94, -0.342, 0.342, 0.94, -5.274, 1.919)" fill="#fff"/>
      </g>
    </g>
    <g id="Grupo_26834" data-name="Grupo 26834" transform="translate(14.994 0)">
      <g id="Grupo_26833" data-name="Grupo 26833" clip-path="url(#clip-path-3)">
        <rect id="Retângulo_36687" data-name="Retângulo 36687" width="64.935" height="36.997" transform="translate(-5.268 1.918) rotate(-20)" fill="#f86018"/>
      </g>
    </g>
    <g id="Grupo_26836" data-name="Grupo 26836" transform="translate(82.959 10.52)">
      <g id="Grupo_26835" data-name="Grupo 26835" clip-path="url(#clip-path-4)">
        <rect id="Retângulo_36688" data-name="Retângulo 36688" width="42.568" height="44.237" transform="matrix(0.985, -0.174, 0.174, 0.985, -6.745, 1.161)" fill="#f86018"/>
      </g>
    </g>
    <g id="Grupo_26838" data-name="Grupo 26838" transform="translate(37.471 36.996)">
      <g id="Grupo_26837" data-name="Grupo 26837" clip-path="url(#clip-path-5)">
        <rect id="Retângulo_36689" data-name="Retângulo 36689" width="39.363" height="21.704" transform="translate(-2.908 1.059) rotate(-20)" fill="#f86018"/>
      </g>
    </g>
    <g id="Grupo_26840" data-name="Grupo 26840" transform="translate(0 15.785)">
      <g id="Grupo_26839" data-name="Grupo 26839" clip-path="url(#clip-path-6)">
        <rect id="Retângulo_36690" data-name="Retângulo 36690" width="85.109" height="47.582" transform="translate(-6.546 2.383) rotate(-20)" fill="#fff"/>
      </g>
    </g>
    <g id="Grupo_26842" data-name="Grupo 26842" transform="translate(0 0)">
      <g id="Grupo_26841" data-name="Grupo 26841" clip-path="url(#clip-path-7)">
        <path id="Caminho_21902" data-name="Caminho 21902" d="M193.716,94.13a10.618,10.618,0,0,0-6.878,18.709h-7.009a1.266,1.266,0,1,0,0,2.531h13.887a10.62,10.62,0,0,0,0-21.241m0,15.819a5.2,5.2,0,1,1,5.2-5.2,5.2,5.2,0,0,1-5.2,5.2" transform="translate(-106.676 -56.235)" fill="#270498"/>
      </g>
    </g>
  </g>
  <g id="Grupo_26844" data-name="Grupo 26844" transform="translate(130.179 3.242)">
    <path id="Caminho_15" data-name="Caminho 15" d="M110.442,477.4H123v3.626c1.082-2.489,4.547-4.276,8.174-4.276,4.656,0,7.306,1.462,9.093,5.033a11.739,11.739,0,0,1,9.85-5.033c7.633,0,10.771,4.114,10.771,14.073v17.536H148.33V492.122c0-3.79-.758-4.98-3.194-4.98-2.328,0-3.194,1.19-3.194,4.439v16.779H129.385V492.122c0-3.79-.758-4.98-3.194-4.98-2.381,0-3.194,1.245-3.194,4.98v16.237H110.44V477.4Z" transform="translate(-110.44 -462.406)" fill="#fff"/>
    <path id="Caminho_16" data-name="Caminho 16" d="M398.74,493.116c0-11.151,8.282-16.076,16.725-16.076s16.617,4.925,16.617,16.076c0,11.259-8.174,16.184-16.725,16.184C406.967,509.3,398.74,504.373,398.74,493.116Zm20.84-.055c0-3.843-1.84-5.9-4.168-5.9-2.273,0-4.223,2.056-4.223,5.9,0,3.951,1.948,5.954,4.223,5.954C417.738,499.015,419.58,497.012,419.58,493.061Z" transform="translate(-345.856 -462.642)" fill="#fff"/>
    <path id="Caminho_17" data-name="Caminho 17" d="M589.37,493.116c0-11.151,8.282-16.076,16.725-16.076s16.617,4.925,16.617,16.076c0,11.259-8.174,16.184-16.725,16.184C597.6,509.3,589.37,504.373,589.37,493.116Zm20.838-.055c0-3.843-1.84-5.9-4.168-5.9-2.273,0-4.223,2.056-4.223,5.9,0,3.951,1.948,5.954,4.223,5.954C608.368,499.015,610.208,497.012,610.208,493.061Z" transform="translate(-501.519 -462.642)" fill="#fff"/>
    <path id="Caminho_18" data-name="Caminho 18" d="M759.63,480.58h13.64l4.709,16.346,4.656-16.346h13.748l-11.962,30.907H771.485Z" transform="translate(-640.547 -465.533)" fill="#fff"/>
    <path id="Caminho_19" data-name="Caminho 19" d="M956.45,404.5c0-3.951,2.869-5.954,6.928-5.954,3.68,0,6.928,2,6.928,5.954,0,4-3.249,5.954-6.928,5.954C959.319,410.458,956.45,408.509,956.45,404.5Zm.594,9.04h12.611V444.5H957.044Z" transform="translate(-801.264 -398.55)" fill="#fff"/>
    <path id="Caminho_20" data-name="Caminho 20" d="M1049.1,477.4h12.558v3.626c1.462-2.489,4.817-4.276,8.443-4.276,7.849,0,11.043,4.331,11.043,14.073v17.536h-12.558V492.122c0-3.518-1.082-4.98-3.463-4.98-2.6,0-3.463,1.462-3.463,4.98v16.237H1049.1V477.4Z" transform="translate(-876.919 -462.406)" fill="#fff"/>
  </g>
</svg>
